<?xml version="1.0" encoding="utf-8"?>
<!DOCTYPE svg PUBLIC "-//W3C//DTD SVG 1.1//EN" "http://www.w3.org/Graphics/SVG/1.1/DTD/svg11.dtd">
<svg version="1.1" id="Layer_1" xmlns="http://www.w3.org/2000/svg" xmlns:xlink="http://www.w3.org/1999/xlink" x="0px" y="0px"
     viewBox="0 0 120 120" enable-background="new 0 0 120 120" xml:space="preserve">
    <!--ELECTRONS-->
    <g id="electron-1">
        <path class="fill" fill="#FFFFFF" d="M40.9,91.1c-0.4-0.5-0.7-1-1.1-1.5c-0.7-1-1.5-2-2.2-3.1c-0.1-0.2-0.3-0.4-0.5-0.7
            c-0.3-0.4-0.6-0.9-0.9-1.3c-0.3-0.4-0.6-0.9-0.9-1.3c-0.8-1.2-1.6-2.3-2.4-3.5c-0.1-0.2-0.3-0.4-0.4-0.6c-0.1-0.1-0.1-0.2-0.2-0.3
            c-0.6-0.9-1.2-1.9-1.8-2.8c-2.7-4.3-5.5-9-8.2-14.1c0.1,1.3,0.2,2.6,0.4,3.8c2.2,3.9,4.5,7.6,6.7,11c0.7,1,1.4,2.1,2,3.1
            c0.1,0.1,0.1,0.2,0.2,0.3c0.1,0.1,0.2,0.2,0.2,0.4c0.8,1.2,1.6,2.4,2.4,3.5c0.4,0.5,0.8,1.1,1.2,1.6c0.3,0.4,0.6,0.9,0.9,1.3
            c0.1,0.1,0.2,0.2,0.3,0.4c0.8,1.1,1.6,2,2.3,3c0.4,0.5,0.7,1,1.1,1.4c0.1,0.1,0.2,0.2,0.3,0.3c0.9,0.5,1.8,1,2.7,1.5
            c-0.3-0.4-0.6-0.8-0.9-1.2C41.7,92.1,41.3,91.6,40.9,91.1z"
            clip-path="url(#electron-1-mask)"/>
        <path id="electron-1-guide" fill="none" stroke="none" d="M40.9,91.1c-0.4-0.5-0.7-1-1.1-1.5c-0.7-1-1.5-2-2.2-3.1
            c-0.1-0.2-0.3-0.4-0.5-0.7c-0.3-0.4-0.6-0.9-0.9-1.3c-0.3-0.4-0.6-0.9-0.9-1.3c-0.8-1.2-1.6-2.3-2.4-3.5c-0.1-0.2-0.3-0.4-0.4-0.6
            c-0.1-0.1-0.1-0.2-0.2-0.3c-0.6-0.9-1.2-1.9-1.8-2.8c-2.7-4.3-5.5-9-8.2-14.1"/>
        <circle class="fill" fill="#FFFFFF" stroke="none" r="2"  cx="0" cy="0" >
            <animateMotion 
                id="electron-1-animation-1"
                begin="0ms"
                repeatCount="indefinite"
                dur="1000ms" 
                rotate="none" 
                fill="freeze"
                keyPoints="0;1;1"
                keyTimes="0;0.5;1"
                calcMode="linear"
                >
                <mpath xlink:href="#electron-1-guide"/>
            </animateMotion>
        </circle>
        <defs>
            <clipPath id="electron-1-mask">
                <circle fill="red"  r="80"  cx="0" cy="80" >
                    <animateMotion 
                        id="electron-1-animation-2"
                        begin="0ms"
                        repeatCount="indefinite"
                        dur="1000ms" 
                        rotate="none" 
                        fill="freeze"
                        keyPoints="0;1;1"
                        keyTimes="0;0.5;1"
                        calcMode="linear"
                        >
                        <mpath xlink:href="#electron-1-guide"/>
                    </animateMotion>
                </circle>
            </clipPath>
        </defs>
        <animate 
            id="electron-1-animation-3"
            begin="0ms"
            repeatCount="indefinite"
            attributeType="CSS" 
            attributeName="opacity" 
            dur="1000ms" 
            rotate="none" 
            fill="freeze"
            values="1;1;0;0"
            keyTimes="0;.25;0.75;1"
            />
        <animateTransform
            begin="0ms"
            repeatCount="indefinite"
            attributeName="transform"
            dur="4000ms"
            type="rotate"
            keyTimes="  0;          .24;        .25;        .49;        .50;        .74;        .75;        .99;        1"
            values="    0 60 60 ;   0 60 60 ;   90 60 60 ;  90 60 60 ;  180 60 60 ; 180 60 60 ; 270 60 60 ; 270 60 60 ; 0 60 60"
            fill="freeze"
            />
    </g>
    <g id="electron-2">
        <path class="fill" fill="#FFFFFF" d="M43.5,78.9c-0.3-0.4-0.6-0.8-0.9-1.3c-1.1-1.6-2.3-3.2-3.4-4.8c-0.1-0.1-0.2-0.3-0.3-0.4
            c-0.5-0.8-1.1-1.6-1.6-2.4c-3.9-5.9-7.6-12.2-11-18.8c-0.6-1.3-1.3-2.5-1.9-3.8c-0.2,0.7-0.5,1.4-0.7,2.1c0.4,0.8,0.8,1.6,1.2,2.4
            c3.4,6.7,7.2,13,11.2,18.9c0.6,0.9,1.2,1.7,1.8,2.6c0.1,0.1,0.2,0.3,0.3,0.4c1.2,1.6,2.3,3.2,3.5,4.8c0.3,0.4,0.6,0.8,0.9,1.2
            c1.8,2.3,13.3,15.5,15.7,17.9c0.4,0,0.9,0,1.3,0C57.1,95.2,45.2,81.3,43.5,78.9z"
            clip-path="url(#electron-2-mask)"/>
        <path id="electron-2-guide" fill="none" stroke="none" stroke-miterlimit="10" d="M23.8,49.5c0.4,0.8,0.8,1.6,1.2,2.4c3.4,6.7,7.2,13,11.2,18.9
            c0.6,0.9,1.2,1.7,1.8,2.6c0.1,0.1,0.2,0.3,0.3,0.4c1.2,1.6,2.3,3.2,3.5,4.8c0.3,0.4,0.6,0.8,0.9,1.2c1.8,2.3,13.3,15.5,15.7,17.9"/>
        <circle class="fill" fill="#FFFFFF" stroke="none" r="2"  cx="0" cy="0" >
            <animateMotion 
                id="electron-2-animation-1"
                begin="0ms"
                repeatCount="indefinite"
                dur="1100ms" 
                rotate="none" 
                fill="freeze"
                keyPoints="0;1;1"
                keyTimes="0;0.5;1"
                calcMode="linear"
                >
                <mpath xlink:href="#electron-2-guide"/>
            </animateMotion>
        </circle>
        <defs>
            <clipPath id="electron-2-mask">
                <circle fill="red"  r="80"  cx="0" cy="-80" >
                    <animateMotion 
                        id="electron-2-animation-2"
                        begin="0ms"
                        repeatCount="indefinite"
                        dur="1100ms" 
                        rotate="none" 
                        fill="freeze"
                        keyPoints="0;1;1"
                        keyTimes="0;0.5;1"
                        calcMode="linear"
                        >
                        <mpath xlink:href="#electron-2-guide"/>
                    </animateMotion>
                </circle>
            </clipPath>
        </defs>
        <animate 
            id="electron-2-animation-3"
            begin="0ms"
            repeatCount="indefinite"
            attributeType="CSS" 
            attributeName="opacity" 
            dur="1100ms" 
            rotate="none" 
            fill="freeze"
            values="1;1;0;0"
            keyTimes="0;.25;0.75;1"
            />
        <animateTransform
            begin="0ms"
            repeatCount="indefinite"
            attributeName="transform"
            dur="4400ms"
            type="rotate"
            keyTimes="  0;          .24;        .25;        .49;        .50;        .74;        .75;        .99;        1"
            values="    0 60 60 ;   0 60 60 ;   90 60 60 ;  90 60 60 ;  180 60 60 ; 180 60 60 ; 270 60 60 ; 270 60 60 ; 0 60 60"
            fill="freeze"
            />
    </g>
    <g id="electron-3">
        <path class="fill" fill="#FFFFFF" d="M48.1,26.5c-0.6-0.6-1.3-1.2-1.9-1.8c-0.5,0.2-1,0.4-1.5,0.6c0.5,0.5,5.4,5.2,7,6.9
            c1.2,1.2,12.5,15,14.6,18c0.1,0.2,0.3,0.4,0.4,0.6c0.2,0.3,0.4,0.5,0.6,0.8c0.9,1.4,1.9,2.7,2.8,4.1c0.2,0.3,0.4,0.7,0.6,1
            c2.6,4,5,8,7.2,11.9c3.3,6.1,6.1,12,8.3,17.6c0.1,0.3,0.2,0.5,0.3,0.8c0.2-0.2,0.4-0.4,0.6-0.6c-0.1-0.2-0.1-0.3-0.2-0.5
            C84.7,80.1,82,74.1,78.7,68c-2.1-4-4.5-8-7.1-12.1c-0.2-0.3-0.4-0.6-0.6-0.9c-0.9-1.4-1.8-2.7-2.7-4.1c-0.2-0.3-0.4-0.5-0.6-0.8
            c-0.1-0.2-0.3-0.4-0.4-0.7c-2.1-3-13.4-17-14.6-18.2c-1.3-1.4-2.6-2.8-4-4.1"
            clip-path="url(#electron-3-mask)"/>
        <path id="electron-3-guide" fill="none" stroke="none" stroke-miterlimit="10" d="M44.7,25.3c0.5,0.5,5.4,5.2,7,6.9c1.2,1.2,12.5,15,14.6,18
            c0.1,0.2,0.3,0.4,0.4,0.6c0.2,0.3,0.4,0.5,0.6,0.8c0.9,1.4,1.9,2.7,2.8,4.1c0.2,0.3,0.4,0.7,0.6,1c2.6,4,5,8,7.2,11.9
            c3.3,6.1,6.1,12,8.3,17.6"/>
        <circle class="fill" fill="#FFFFFF" stroke="none" r="2"  cx="0" cy="0" >
            <animateMotion 
                id="electron-3-animation-1"
                begin="0ms"
                repeatCount="indefinite"
                dur="1200ms" 
                rotate="none" 
                fill="freeze"
                keyPoints="0;1;1"
                keyTimes="0;0.5;1"
                calcMode="linear"
                >
                <mpath xlink:href="#electron-3-guide"/>
            </animateMotion>
        </circle>
        <defs>
            <clipPath id="electron-3-mask">
                <circle fill="red"  r="80"  cx="0" cy="-80" >
                    <animateMotion 
                        id="electron-3-animation-2"
                        begin="0ms"
                        repeatCount="indefinite"
                        dur="1200ms" 
                        rotate="none" 
                        fill="freeze"
                        keyPoints="0;1;1"
                        keyTimes="0;0.5;1"
                        calcMode="linear"
                        >
                        <mpath xlink:href="#electron-3-guide"/>
                    </animateMotion>
                </circle>
            </clipPath>
        </defs>
        <animate 
            id="electron-3-animation-3"
            begin="0ms"
            repeatCount="indefinite"
            attributeType="CSS" 
            attributeName="opacity" 
            dur="1200ms" 
            rotate="none" 
            fill="freeze"
            values="1;1;0;0"
            keyTimes="0;.25;0.75;1"
            />
        <animateTransform
            begin="0ms"
            repeatCount="indefinite"
            attributeName="transform"
            dur="4800ms"
            type="rotate"
            keyTimes="  0;          .24;        .25;        .49;        .50;        .74;        .75;        .99;        1"
            values="    0 60 60 ;   0 60 60 ;   90 60 60 ;  90 60 60 ;  180 60 60 ; 180 60 60 ; 270 60 60 ; 270 60 60 ; 0 60 60"
            fill="freeze"
            />
    </g>
    <g id="electron-4">
        <path class="fill" fill="#FFFFFF" d="M83,56.5c-1.1-1.6-2.3-3.3-3.6-5.1c-0.1-0.1-0.1-0.1-0.2-0.2c-0.1-0.2-0.2-0.4-0.4-0.5c-1-1.3-2-2.7-3-4
            c-0.2-0.3-0.4-0.6-0.7-0.9c-1.7-2.2-3.5-4.4-5.6-6.7C66.1,35,58.1,27,53.6,22.8c-0.5,0-1,0-1.6,0.1c0,0,0,0,0.1,0.1
            c4.8,4.4,13.1,12.5,16.9,16.8c1.9,2.1,3.6,4.2,5.3,6.2c0.1,0.1,0.2,0.2,0.3,0.4c0.2,0.3,0.5,0.6,0.7,0.8c1.1,1.4,2.2,2.7,3.1,4
            c0.1,0.2,0.3,0.4,0.4,0.6c0,0,0.1,0.1,0.1,0.1c1.4,1.8,2.6,3.5,3.8,5c1.2,1.6,2.2,3.1,3.2,4.5c0.9,1.4,1.7,2.6,2.5,3.7
            c0.7,1.1,1.3,2,1.8,2.7c0.9,1.5,1.5,2.3,1.5,2.3s-0.5-0.8-1.4-2.3c-0.4-0.8-1-1.7-1.7-2.8c-0.7-1.1-1.5-2.3-2.4-3.8
            C85.1,59.7,84.1,58.2,83,56.5z"
            clip-path="url(#electron-4-mask)"/>
        <path id="electron-4-guide" fill="none" stroke="none" stroke-miterlimit="10" d="M52,22.9C52,22.9,52.1,22.9,52,22.9c4.8,4.5,13.2,12.6,16.9,16.9
            c1.9,2.1,3.6,4.2,5.3,6.2c0.1,0.1,0.2,0.2,0.3,0.4c0.2,0.3,0.5,0.6,0.7,0.8c1.1,1.4,2.2,2.7,3.1,4c0.1,0.2,0.3,0.4,0.4,0.6
            c0,0,0.1,0.1,0.1,0.1c1.4,1.8,2.6,3.5,3.8,5c1.2,1.6,2.2,3.1,3.2,4.5c0.9,1.4,1.7,2.6,2.5,3.7c0.7,1.1,1.3,2,1.8,2.7"/>
        <circle class="fill" fill="#FFFFFF" stroke="none" r="2"  cx="0" cy="0" >
            <animateMotion 
                id="electron-4-animation-1"
                begin="0ms"
                repeatCount="indefinite"
                dur="1300ms" 
                rotate="none" 
                fill="freeze"
                keyPoints="0;1;1"
                keyTimes="0;0.5;1"
                calcMode="linear"
                >
                <mpath xlink:href="#electron-4-guide"/>
            </animateMotion>
        </circle>
        <defs>
            <clipPath id="electron-4-mask">
                <circle fill="red"  r="80"  cx="-80" cy="0" >
                    <animateMotion 
                        id="electron-4-animation-2"
                        begin="0ms"
                        repeatCount="indefinite"
                        dur="1300ms" 
                        rotate="none" 
                        fill="freeze"
                        keyPoints="0;1;1"
                        keyTimes="0;0.5;1"
                        calcMode="linear"
                        >
                        <mpath xlink:href="#electron-4-guide"/>
                    </animateMotion>
                </circle>
            </clipPath>
        </defs>
        <animate 
            id="electron-4-animation-3"
            begin="0ms"
            repeatCount="indefinite"
            attributeType="CSS" 
            attributeName="opacity" 
            dur="1300ms" 
            rotate="none" 
            fill="freeze"
            values="1;1;0;0"
            keyTimes="0;.25;0.75;1"
            />
        <animateTransform
            begin="0ms"
            repeatCount="indefinite"
            attributeName="transform"
            dur="5200ms"
            type="rotate"
            keyTimes="  0;          .24;        .25;        .49;        .50;        .74;        .75;        .99;        1"
            values="    0 60 60 ;   0 60 60 ;   90 60 60 ;  90 60 60 ;  180 60 60 ; 180 60 60 ; 270 60 60 ; 270 60 60 ; 0 60 60"
            fill="freeze"
            />
    </g>
    <circle class="stroke" fill="none" stroke="#FFFFFF" stroke-width="2" cx="60" cy="60" r="38"/>
    <!--HALOS-->
    <circle id="listening" class="stroke" opacity="0" fill="none" stroke="#FFFFFF" r="40"  cx="60" cy="60" >
        <animate attributeName="r" attributeType="XML"
         id="listening-animation-1" begin="0ms" repeatCount="indefinite" dur="1500ms" fill="freeze" from="40" to="50" />
        <animate attributeName="opacity" attributeType="XML"
         id="listening-animation-2" begin="0ms" repeatCount="indefinite" dur="1500ms" fill="freeze" from="1" to="0" />
    </circle>
</svg>
