<?xml version="1.0" encoding="utf-8"?>
<!-- Generator: Adobe Illustrator 18.1.1, SVG Export Plug-In . SVG Version: 6.00 Build 0)  -->
<!DOCTYPE svg PUBLIC "-//W3C//DTD SVG 1.1//EN" "http://www.w3.org/Graphics/SVG/1.1/DTD/svg11.dtd">
<svg version="1.1" xmlns="http://www.w3.org/2000/svg" xmlns:xlink="http://www.w3.org/1999/xlink" x="0px" y="0px"
	 viewBox="0 0 128 128" enable-background="new 0 0 128 128" xml:space="preserve">
<g id="Layer_1" display="none">
	<g display="inline">
		<path fill="#FFFFFF" d="M63.5,7.3L11.1,59.7l11.2,11.2v48.7h82.4V70.9l11.2-11.2L63.5,7.3z M101,115.8H26.1V67.2l37.4-37.4
			L101,67.2V115.8z"/>
		<circle fill="#FFFFFF" cx="63.5" cy="63.4" r="7.5"/>
	</g>
</g>
<g id="Layer_2">
	<path fill="#FFFFFF" d="M63.5,8.8C33.2,8.8,8.6,33.4,8.6,63.7c0,30.3,24.6,54.9,54.9,54.9c30.3,0,54.9-24.6,54.9-54.9
		C118.4,33.4,93.8,8.8,63.5,8.8z M63.5,15.7c24.1,0,44.1,17.8,47.5,40.9H76.1c-2.5-4.4-7.2-7.4-12.6-7.4c-5.4,0-10.1,3-12.6,7.4H16
		C19.4,33.5,39.4,15.7,63.5,15.7z M15.5,63.7c0-2.3,0.2-4.5,0.5-6.6l33.3,8.9c0.8,5.1,4.3,9.4,9,11.2l5.2,34.6
		C37,111.7,15.5,90.2,15.5,63.7z M63.5,111.7l5.4-34.7c4.7-1.9,8.1-6.1,8.8-11.2l33.3-9.1c0.3,2.3,0.5,4.6,0.5,7
		C111.5,90.2,90,111.7,63.5,111.7z"/>
</g>
<g id="Layer_3" display="none">
	<g display="inline">
		<rect x="41.7" y="31.8" fill="#FFFFFF" width="18.7" height="18.7"/>
		<path fill="#FFFFFF" d="M26.8,8v7.5v104.8h74.9V15.5V8H26.8z M97.9,116.6H30.5V19.3h67.4V116.6z"/>
		<rect x="67.7" y="31.8" fill="#FFFFFF" width="18.7" height="18.7"/>
		<rect x="41.7" y="57.4" fill="#FFFFFF" width="18.7" height="18.7"/>
		<rect x="67.9" y="57.4" fill="#FFFFFF" width="18.7" height="18.7"/>
		<rect x="41.7" y="82.9" fill="#FFFFFF" width="18.7" height="18.7"/>
		<rect x="67.9" y="82.9" fill="#FFFFFF" width="18.7" height="18.7"/>
	</g>
</g>
<g id="Layer_4" display="none">
	<g display="inline">
		<path fill="#FFFFFF" d="M33.6,90c10.3,0,18.7-8.4,18.7-18.7S44,52.6,33.6,52.6s-18.7,8.4-18.7,18.7S23.3,90,33.6,90z M33.6,56.3
			c8.3,0,15,6.7,15,15s-6.7,15-15,15s-15-6.7-15-15S25.4,56.3,33.6,56.3z"/>
		<path fill="#FFFFFF" d="M74.8,71.3c0,10.3,8.4,18.7,18.7,18.7s18.7-8.4,18.7-18.7s-8.4-18.7-18.7-18.7S74.8,60.9,74.8,71.3z
			 M93.5,56.3c8.3,0,15,6.7,15,15s-6.7,15-15,15s-15-6.7-15-15S85.3,56.3,93.5,56.3z"/>
		<path fill="#FFFFFF" d="M82.3,30.1c0-10.3-8.4-18.7-18.7-18.7s-18.7,8.4-18.7,18.7s8.4,18.7,18.7,18.7S82.3,40.4,82.3,30.1z
			 M63.6,45.1c-8.3,0-15-6.7-15-15s6.7-15,15-15s15,6.7,15,15S71.8,45.1,63.6,45.1z"/>
		<path fill="#FFFFFF" d="M48.6,97.5H18.7c-4.1,0-7.5,3.4-7.5,7.5v11.2h44.9V105C56.1,100.8,52.7,97.5,48.6,97.5z"/>
		<path fill="#FFFFFF" d="M108.5,97.5H78.5c-4.1,0-7.5,3.4-7.5,7.5v11.2H116V105C116,100.8,112.6,97.5,108.5,97.5z"/>
	</g>
</g>
</svg>
